<svg viewBox="0 0 90 70" fill="#FFFFFF" xmlns="http://www.w3.org/2000/svg">
    <path d="M51.9356 40.3515L53.3692 43.9599L55.1231 40.496L58.2998 34.2206L60.3291 39.4364L60.7637 40.5517H81.9961L63.7647 57.5917C60.6229 60.528 56.8727 62.5495 52.8945 63.6601C44.0894 66.5725 33.8877 64.7375 26.8428 58.1532L8.01173 40.5517H39.8457L40.3545 39.6923L47.126 28.2489L51.9356 40.3515ZM7.32619 6.84755C17.0951 -2.28239 32.9335 -2.28265 42.7022 6.84755L45.0029 8.99892L47.2969 6.85537C57.0658 -2.27458 72.9042 -2.27483 82.6729 6.85537C91.4744 15.0821 92.3439 27.9135 85.2842 37.0517H63.1572L60.1406 29.2987L58.7197 25.6454L56.9492 29.1425L53.7539 35.4511L49.0635 23.6435L47.7471 20.33L45.9307 23.3983L37.8496 37.0517H4.71974C-2.34671 27.9128 -1.47841 15.0767 7.32619 6.84755ZM74.001 4.60244C72.8714 3.94228 71.4536 3.98197 70.3828 4.704C68.3681 6.06262 68.5602 9.01338 70.7383 10.1659L71.6865 10.6679C71.895 10.7782 72.0928 10.9067 72.2783 11.0507L72.9492 11.5712C75.03 13.1867 76.5836 15.3508 77.418 17.7958L77.9024 19.2138C77.9673 19.4041 78.0145 19.5998 78.0449 19.7977L78.1113 20.2284C78.4751 22.6001 81.2939 23.7962 83.3125 22.4354C84.3704 21.7221 84.8944 20.4725 84.6533 19.2372L84.1406 16.6142C84.0465 16.1322 83.9036 15.6595 83.7129 15.204L83.2529 14.1044C82.2107 11.6147 80.5883 9.38565 78.5137 7.59267L77.8135 6.98818C77.4382 6.66391 77.033 6.37349 76.6026 6.12197L74.001 4.60244Z" fill="#ffffff"/>
</svg>
